<svg xmlns="http://www.w3.org/2000/svg" viewBox="0 0 64 64">
  <rect width="64" height="64" rx="14" fill="#18181b" />
  <path
    d="M32 12c9.94 0 18 8.06 18 18 0 10.42-3.41 17.45-10.24 21.08a2.5 2.5 0 1 1-2.35-4.41c5-2.67 7.59-7.97 7.59-16.67 0-7.18-5.82-13-13-13s-13 5.82-13 13c0 8.7 2.59 14 7.59 16.67a2.5 2.5 0 1 1-2.35 4.41C17.41 47.45 14 40.42 14 30c0-9.94 8.06-18 18-18Z"
    fill="#22c55e"
  />
  <path
    d="M32 22a8 8 0 0 1 8 8c0 6.09-2 10.14-6 12.14a2.5 2.5 0 1 1-2.24-4.47c1.76-.88 3.24-2.9 3.24-7.67A3 3 0 1 0 29 30c0 4.77 1.48 6.79 3.24 7.67A2.5 2.5 0 1 1 30 42.14c-4-2-6-6.05-6-12.14a8 8 0 0 1 8-8Z"
    fill="#fafafa"
  />
</svg>
